PathFileType	4	(X/Y/Z)	Patient4_TMGait_0pt2_02_right_09.trc.trc
DataRate	CameraRate	NumFrames	NumMarkers	Units	OrigDataRate	OrigDataStartFrame	OrigNumFrames
41.420118343195	41.420118343195	4	33	mm	41.420118343195	36	       141
Frame#	Time	R.Midfoot.Superior			Sacral			L.Shoulder			Chest			R.Shoulder			Neck			R.ASIS			L.ASIS			R.Thigh.Superior			R.Thigh.Lateral			R.Thigh.Inferior			R.Patella			L.Thigh.Superior			L.Thigh.Lateral			L.Thigh.Inferior			L.Patella			L.Shank.Superior			L.Shank.Lateral			L.Shank.Inferior			R.Shank.Superior			R.Shank.Lateral			R.Shank.Inferior			R.Heel			R.Midfoot.Lateral			R.Toe			L.Heel			L.Midfoot.Lateral			L.Midfoot.Superior			L.Toe			L.Elbow			L.Wrist			R.Elbow			R.Wrist			
		X1	Y1	Z1	X2	Y2	Z2	X3	Y3	Z3	X4	Y4	Z4	X5	Y5	Z5	X6	Y6	Z6	X7	Y7	Z7	X8	Y8	Z8	X9	Y9	Z9	X10	Y10	Z10	X11	Y11	Z11	X12	Y12	Z12	X13	Y13	Z13	X14	Y14	Z14	X15	Y15	Z15	X16	Y16	Z16	X17	Y17	Z17	X18	Y18	Z18	X19	Y19	Z19	X20	Y20	Z20	X21	Y21	Z21	X22	Y22	Z22	X23	Y23	Z23	X24	Y24	Z24	X25	Y25	Z25	X26	Y26	Z26	X27	Y27	Z27	X28	Y28	Z28	X29	Y29	Z29	X30	Y30	Z30	X31	Y31	Z31	X32	Y32	Z32	X33	Y33	Z33	

36	19.995000000000	1121.634157610857	97.821071606410	598.914607833983	833.449438021665	1004.706555952505	460.733714003272	1072.630272481327	1429.588954818526	338.932838685506	1114.694576276758	1360.180969477131	523.290481852081	985.457455327923	1440.720464369503	660.833574285534	1004.502155533887	1492.073787861041	483.817598990897	1032.735788394085	938.100310079584	626.968806617099	1077.385784579932	959.566496596236	356.641081840397	1102.219262403866	750.244365253244	591.639341022243	1031.502857640204	630.659890686796	645.651449564248	1120.567262316974	587.669376334011	571.393435400237	1133.134848751915	499.186758054928	579.448767874457	1076.665193532605	729.482188242659	377.484491709452	971.208259979214	630.274822903677	299.268312243705	1026.746712982164	539.276726872065	369.531623468746	1012.993858383395	469.324216085502	372.584937809355	971.510340544820	406.076607083610	358.563127153446	863.159640760771	311.858986742058	300.802907051019	891.665659149893	189.323301166644	366.063150554754	1106.099553197018	407.907737474352	586.523276672306	1036.683603007216	304.149497129256	651.668869854942	1080.886842694656	208.392575441382	590.729464984508	949.253451944378	43.068739817487	569.549424690271	1035.669708800943	37.075306548883	639.958622850309	1242.671287732254	48.140528644140	620.997075708075	743.534080798734	45.127076975324	401.056193876528	816.650295050307	39.387561981491	320.402986801005	903.038705428334	96.941880456005	346.878565788194	1028.378280685455	40.231878564904	314.895889703719	1262.595733477250	1174.569920310691	188.962449049744	1519.888231584260	1185.446762480548	228.534354101503	803.780550833621	1140.096218133854	729.922772799698	770.552316624338	878.446927145897	726.497453077009	
37	20.019142857143	1116.991008477918	97.683103368509	598.946589314579	834.902253747488	1005.594278156724	467.772404464065	1073.310238821685	1430.127054326038	343.186805457184	1117.086341863798	1360.761544374843	527.248031332958	988.905353493072	1441.345178614512	665.848647586172	1006.535411396177	1492.787149636209	488.593724020304	1035.641726192305	939.014330965625	632.345757777145	1077.776168140877	959.773413033514	361.563753792074	1103.175579026906	749.773902086910	596.230781499078	1031.192527551318	630.649886654630	649.711251645666	1119.389852699154	587.114914963474	574.761102488366	1131.146808755969	498.501775328382	582.009654175734	1076.940069601764	729.697396717095	381.296058144559	971.005555711561	630.949881503812	303.096678778321	1027.587899509371	539.313754978409	372.044701203934	1013.983431195356	468.777382992676	374.303329016957	971.198352902898	406.282012699855	360.357189496435	861.074477797301	313.930439573628	302.716811181147	888.806570149801	190.269143263482	366.392785998037	1103.546085556115	407.487920010527	588.526811324718	1033.909383378636	303.695191251139	653.337421766186	1077.095390989823	208.092413674011	591.363736305532	944.642769931390	43.125142956787	569.539071371783	1031.011542617044	37.103302613285	639.970159713302	1238.078905123085	47.767723162148	621.071034502726	739.176328716810	47.436837472877	400.963382169338	812.275113757310	40.570671728017	320.438165620262	899.299390112126	97.334783120771	346.620203500679	1024.004695493877	39.693293651488	314.751261266743	1259.103581162241	1171.170280600919	192.606697084688	1517.062383885659	1177.589930426548	231.596152829676	808.323777500529	1140.353500566099	737.541728586668	774.955175759736	878.760638792334	735.531465371177	
38	20.043285714286	1112.256322463934	97.572249459293	598.987900907906	836.046803557916	1006.507551675763	474.780993010956	1073.691133171943	1430.627858441435	347.204411746429	1119.336205466337	1361.285814419996	530.905588211671	992.352207150726	1441.909564506918	670.688477054309	1008.470190708178	1493.485586697309	493.182784180877	1038.246269717304	939.840318276038	637.580759085866	1077.758291637977	960.004362458479	366.362309068604	1103.716680886070	749.232951935104	600.768402345410	1030.372276894801	630.620211322629	653.714229079704	1117.710240162063	586.544355045282	578.130575791106	1128.605908670583	497.854367400578	584.597666925015	1077.510392825036	730.108525848833	385.104398972470	971.577702288996	631.473307737116	306.924343290518	1029.583498480617	539.358345533743	374.560000912738	1016.243397625588	468.095970450582	375.966445205551	971.944788618166	406.347087373531	362.124098909627	859.875818677638	316.166289069609	304.603867184748	886.498981218588	191.371392287138	366.672107643804	1100.528925013592	407.114195294535	590.565038642145	1030.706245254225	303.234832264758	654.963053902810	1073.066310419166	207.850242630183	592.034298640176	939.949169749321	43.183887993682	569.498254563312	1026.269481125977	37.128089204705	639.962921151189	1233.381704913906	47.450329762942	621.146789279908	735.002480846813	50.350955149600	400.790846516486	808.023629542790	42.068887735834	320.404371906839	895.835574682591	97.826830073514	346.263975649170	1019.691389050008	39.187012002448	314.615912720570	1254.203221880357	1166.810755281496	196.201538430733	1512.871084428632	1167.490132624151	234.469743271673	813.471732164509	1140.131025692692	745.296627142333	780.498301807656	878.527387568293	744.928757496933	
39	20.067428571429	1107.448704350114	97.476672612948	599.034829983741	836.886874062120	1007.386535110346	481.759532743070	1073.722903325267	1431.051114842491	350.975791308238	1121.390742905683	1361.720113438865	534.250605891321	995.745045911197	1442.363609786840	675.334788122720	1010.249773951592	1494.126233589605	497.567236383328	1040.574523160978	940.555549375249	642.652898390605	1077.344015435536	960.222708370954	371.013324118309	1103.932655089911	748.638976296144	605.196393342658	1029.218574747079	630.557435514355	657.643875759442	1115.700373636751	585.963492113347	581.460800942140	1125.711573398001	497.228110929130	587.183572231932	1078.455877700428	730.696761792714	388.918175207434	973.052450599619	631.803767195536	310.745581840138	1032.869269807623	539.404780682738	377.091203624747	1019.909537090664	467.275726370010	377.591446202270	973.899249221617	406.256551218631	363.870735002926	859.721706677804	318.600992500904	306.457842262780	884.834561668662	192.677040059233	366.893137704532	1097.210765500551	406.763119219900	592.616412816457	1027.212238572115	302.769600400122	656.542746657481	1068.877742156926	207.641012539776	592.728333285036	935.176252175383	43.238697923725	569.441028886674	1021.453188786709	37.147322477587	639.947442815969	1228.597258558361	47.174067784816	621.215127088613	731.084181600166	54.039193872550	400.525774489200	803.934564789949	44.012356512911	320.293555504646	892.699484248349	98.461540106150	345.805871596389	1015.407787741370	38.712604489861	314.503719350461	1247.762098254289	1161.445019180408	199.828205184172	1507.037876489732	1154.840995194202	237.186290918609	819.370822906869	1139.285569245622	753.191196410659	787.451470766364	877.590093987300	754.746710158323	
